# xmcd
#
# Track frame offsets: 
#        150
#        15877
#        38312
#        61122
#        89265
#        117527
#        144080
#        162082
#        188770
#        212545
#        239900
#        267877
#        293220
#
# Disc length: 4279 seconds
#
# Revision: 0
# Processed by: cddbd v1.5.2PL0 Copyright (c) Steve Scherf et al.
# Submitted via: ExactAudioCopyFreeDBPlugin 1.0
#
DISCID=a610b50d
DTITLE=Various Artist - Smash Hitz
DYEAR=1994
DGENRE=Electronic
TTITLE0=Deadeye Dick - New Age Girl (Snyder Ktmt Phone Mix)
TTITLE1=2 Belgen - Lena (Ragga Mix)
TTITLE2=Whigfield - Another Day (Nite Mix)
TTITLE3=Plastic Age - Someone Loves You, Honey
TTITLE4=Zenith - We Dance The Night Away (Ravebase Club Mix)
TTITLE5=Mimmo Mix Feat. Nicole - Love Me Baby (Club Mix)
TTITLE6=Playahitty - The Summer Is Magic Remix (Alex Party Mix)
TTITLE7=Epopea - People Of The Night (Got To The Music)
TTITLE8=Archon - Cambodia (Dance Mix)
TTITLE9=The Professor - Rockin' Me (R.A.F. Zone)
TTITLE10=Pinko - Wild World (F.T. and Company Edit)
TTITLE11=J.V. Project - Joy (Joy Mix)
TTITLE12=Beatmatic - The Final Countdown (Original Mix)
EXTD=
EXTT0=
EXTT1=
EXTT2=
EXTT3=
EXTT4=
EXTT5=
EXTT6=
EXTT7=
EXTT8=
EXTT9=
EXTT10=
EXTT11=
EXTT12=
PLAYORDER=
